Coordinates
version=1
nRows=54
nColumns=12
inDegrees=yes

Units are S.I. units (second, meters, Newtons, ...)
Angles are in degrees

endheader
time	SC_y	SC_z	SC_x	AC_y	AC_z	AC_x	GH_y	GH_z	GH_yy	EL_x	PS_y
       0.0              -50.98          26.84          13.91          66.29          8.371         -6.151         -158.8           22.7          -18.5          52.66          152.7
   0.02452              -50.98          26.84          13.91          66.29          8.369         -6.149         -158.8          22.69          -18.5          52.67          152.6
   0.04905              -50.98          26.84          13.91          66.29          8.366         -6.146         -158.7          22.69          -18.5          52.68          152.6
   0.07357              -50.97          26.84          13.91          66.28          8.363         -6.143         -158.7          22.68          -18.5          52.68          152.6
   0.09809              -50.97          26.83          13.91          66.28           8.36         -6.141         -158.7          22.68         -18.49          52.69          152.6
    0.1226              -50.97          26.83          13.91          66.28          8.357         -6.137         -158.6          22.67         -18.49           52.7          152.6
    0.1471              -50.97          26.83          13.91          66.28          8.353         -6.134         -158.6          22.66         -18.49          52.71          152.6
    0.1717              -50.96          26.83          13.91          66.28           8.35          -6.13         -158.5          22.65         -18.49          52.72          152.6
    0.1962              -50.96          26.82          13.91          66.27          8.346         -6.126         -158.5          22.64         -18.49          52.73          152.6
    0.2207              -50.96          26.82           13.9          66.27          8.341         -6.122         -158.4          22.63         -18.48          52.74          152.6
    0.2452              -50.96          26.81           13.9          66.27          8.337         -6.118         -158.4          22.62         -18.48          52.75          152.6
    0.2698              -50.95          26.81           13.9          66.27          8.332         -6.113         -158.3          22.61         -18.48          52.76          152.6
    0.2943              -50.95           26.8           13.9          66.26          8.326         -6.108         -158.2           22.6         -18.47          52.78          152.6
    0.3188              -50.95           26.8           13.9          66.26           8.32         -6.102         -158.2          22.59         -18.47          52.79          152.6
    0.3433              -50.94          26.79           13.9          66.26          8.314         -6.096         -158.1          22.58         -18.47          52.81          152.6
    0.3679              -50.94          26.79           13.9          66.25          8.307          -6.09         -158.0          22.56         -18.46          52.83          152.6
    0.3924              -50.93          26.78           13.9          66.25            8.3         -6.082         -157.9          22.55         -18.46          52.84          152.5
    0.4169              -50.93          26.77          13.89          66.25          8.292         -6.075         -157.8          22.53         -18.45          52.86          152.5
    0.4414              -50.92          26.77          13.89          66.24          8.283         -6.066         -157.7          22.51         -18.45          52.89          152.5
    0.4659              -50.91          26.76          13.89          66.24          8.273         -6.057         -157.6          22.49         -18.44          52.91          152.5
    0.4905              -50.91          26.75          13.89          66.23          8.263         -6.047         -157.4          22.47         -18.44          52.94          152.5
     0.515               -50.9          26.74          13.88          66.23          8.251         -6.035         -157.3          22.44         -18.43          52.97          152.5
    0.5395              -50.89          26.73          13.88          66.22          8.238         -6.023         -157.1          22.41         -18.42           53.0          152.5
     0.564              -50.88          26.71          13.88          66.21          8.224         -6.009         -157.0          22.38         -18.41          53.04          152.4
    0.5886              -50.87           26.7          13.87           66.2          8.208         -5.994         -156.8          22.35          -18.4          53.08          152.4
    0.6131              -50.86          26.68          13.87          66.19           8.19         -5.977         -156.5          22.31         -18.39          53.12          152.4
    0.6376              -50.85          26.67          13.87          66.18           8.17         -5.957         -156.3          22.27         -18.38          53.17          152.4
    0.6621              -50.83          26.65          13.86          66.17          8.148         -5.936         -156.0          22.22         -18.36          53.23          152.3
    0.6867              -50.81          26.63          13.86          66.16          8.122         -5.912         -155.7          22.17         -18.35           53.3          152.3
    0.7112              -50.79           26.6          13.85          66.14          8.094         -5.884         -155.4          22.11         -18.33          53.37          152.3
    0.7357              -50.77          26.57          13.84          66.13          8.061         -5.852         -155.0          22.04         -18.31          53.45          152.2
    0.7602              -50.75          26.54          13.83          66.11          8.023         -5.816         -154.5          21.96         -18.29          53.55          152.2
    0.7847              -50.72           26.5          13.82          66.09           7.98         -5.774         -153.9          21.86         -18.26          53.66          152.1
    0.8093              -50.69          26.46          13.81          66.06          7.929         -5.726         -153.3          21.75         -18.23          53.79          152.0
    0.8338              -50.65           26.4           13.8          66.03           7.87         -5.669         -152.6          21.63          -18.2          53.94          151.9
    0.8583               -50.6          26.34          13.79          65.99          7.801         -5.602         -151.7          21.48         -18.15          54.12          151.8
    0.8828              -50.54          26.27          13.77          65.95          7.718         -5.522         -150.7           21.3          -18.1          54.33          151.7
    0.9074              -50.48          26.18          13.75           65.9          7.619         -5.427         -149.5          21.09         -18.04          54.58          151.6
    0.9319               -50.4          26.08          13.72          65.84          7.499         -5.312         -148.0          20.83         -17.97          54.88          151.4
    0.9564               -50.3          25.95          13.69          65.76          7.353         -5.171         -146.2          20.52         -17.88          55.26          151.2
    0.9809              -50.18          25.79          13.65          65.67          7.172         -4.996         -144.0          20.13         -17.77          55.72          150.9
     1.005              -50.03          25.59           13.6          65.55          6.947         -4.779         -141.2          19.65         -17.63          56.29          150.6
      1.03              -49.84          25.34          13.53           65.4          6.663         -4.506         -137.6          19.05         -17.46          57.02          150.2
     1.055               -49.6          25.02          13.46          65.22          6.302         -4.158         -133.2          18.27         -17.24          57.94          149.7
     1.079              -49.29          24.62          13.35          64.98           5.84         -3.714         -127.5          17.29         -16.95          59.11          149.0
     1.104               -48.9           24.1          13.22          64.67          5.247         -3.143         -120.1          16.02         -16.59          60.62          148.1
     1.128              -48.39          23.43          13.06          64.28          4.489         -2.413         -110.8           14.4         -16.13          62.55          147.0
     1.153              -47.76          22.59          12.85          63.78          3.537         -1.497         -98.97          12.36         -15.55          64.98          145.7
     1.177              -46.99          21.57          12.59          63.18          2.376        -0.3791         -84.62          9.881         -14.84          67.94          144.0
     1.202              -46.09          20.39          12.29          62.49          1.031         0.9161         -67.97          7.005         -14.01          71.36          142.0
     1.226              -45.12          19.11          11.97          61.73        -0.4255          2.318         -49.95          3.891         -13.12          75.07          139.9
     1.251              -44.15          17.83          11.65          60.98         -1.882          3.721         -31.93         0.7766         -12.23          78.79          137.8
     1.275              -43.25          16.64          11.36          60.28         -3.227          5.016         -15.28           -2.1         -11.41          82.21          135.9
       1.3              -42.48          15.62           11.1          59.68         -4.388          6.134        -0.9242         -4.581          -10.7          85.17          134.2
